<?xml version="1.0" encoding="UTF-8" standalone="no"?>
<!-- Created with Inkscape (http://www.inkscape.org/) -->

<svg
   width="51.608089mm"
   height="50.232231mm"
   viewBox="0 0 51.608089 50.232231"
   version="1.1"
   id="svg5"
   inkscape:version="1.1 (c68e22c387, 2021-05-23)"
   sodipodi:docname="logo.svg"
   xmlns:inkscape="http://www.inkscape.org/namespaces/inkscape"
   xmlns:sodipodi="http://sodipodi.sourceforge.net/DTD/sodipodi-0.dtd"
   xmlns="http://www.w3.org/2000/svg"
   xmlns:svg="http://www.w3.org/2000/svg">
  <sodipodi:namedview
     id="namedview7"
     pagecolor="#ffffff"
     bordercolor="#666666"
     borderopacity="1.0"
     inkscape:pageshadow="2"
     inkscape:pageopacity="0.0"
     inkscape:pagecheckerboard="true"
     inkscape:document-units="mm"
     showgrid="false"
     inkscape:zoom="0.74118967"
     inkscape:cx="24.285282"
     inkscape:cy="312.33571"
     inkscape:window-width="1920"
     inkscape:window-height="1017"
     inkscape:window-x="-8"
     inkscape:window-y="-8"
     inkscape:window-maximized="1"
     inkscape:current-layer="layer1"
     fit-margin-top="0"
     fit-margin-left="0"
     fit-margin-right="0"
     fit-margin-bottom="0" />
  <defs
     id="defs2" />
  <g
     inkscape:label="Слой 1"
     inkscape:groupmode="layer"
     id="layer1"
     transform="translate(-12.772327,-12.698874)">
    <g
       id="g37"
       transform="matrix(0.26458333,0,0,0.26458333,-35.391946,-46.89778)">
      <path
         d="m 188.7643,415.1013 v -36.1335 h 29.3542 v 36.1335 z m 31.7676,0 v -36.1335 h 28.8195 v 36.1335 z m 31.231,0 v -36.1335 h 31.5893 v 36.1335 z m 34.0027,0 v -36.1335 h 26.0476 v 36.1335 z m 28.461,0 v -36.1335 h 31.6785 v 36.1335 z m 34.0919,0 v -36.1335 h 28.7739 v 36.1335 z"
         style="fill:#ffffff;fill-rule:evenodd"
         id="path9" />
      <g
         id="Layer1000">
        <path
           d="m 217.0336,365.9195 h -24.9315 v 10.2444 h -3.3369 V 351.519 h 3.3369 v 10.2884 h 24.9315 z m 0,-30.5316 h -28.2684 v -11.6702 c 0,-2.3748 0.2887,-4.2793 0.8558,-5.7128 0.5726,-1.4401 1.4535,-2.563 2.6456,-3.3734 1.1845,-0.8113 2.4288,-1.2241 3.732,-1.2241 1.2051,0 2.3429,0.3621 3.4088,1.0865 1.0669,0.7167 1.9282,1.81 2.5868,3.2654 0.5007,-1.8826 1.3555,-3.3237 2.5606,-4.3366 1.2107,-1.014 2.639,-1.5205 4.2851,-1.5205 1.3228,0 2.5531,0.3106 3.6919,0.926 1.1387,0.6155 2.014,1.3762 2.6325,2.2811 0.6193,0.905 1.0799,2.0413 1.3956,3.4021 0.3158,1.3618 0.4737,3.0341 0.4737,5.018 z m -16.3884,-4.1197 v -6.7258 c 0,-1.8166 -0.1121,-3.1278 -0.3288,-3.9238 -0.284,-1.0426 -0.7511,-1.832 -1.4087,-2.3604 -0.6586,-0.5285 -1.4807,-0.7961 -2.4682,-0.7961 -0.9351,0 -1.7646,0.2466 -2.4746,0.7387 -0.7184,0.4989 -1.2042,1.2089 -1.4676,2.1206 -0.2634,0.9203 -0.3952,2.498 -0.3952,4.7351 v 6.2117 z m 13.0515,0 v -7.7388 c 0,-1.3321 -0.0458,-2.2667 -0.1317,-2.8019 -0.1579,-0.9489 -0.4148,-1.7383 -0.7773,-2.3747 -0.355,-0.6374 -0.8818,-1.1583 -1.5657,-1.5711 -0.6913,-0.4052 -1.4806,-0.6154 -2.3821,-0.6154 -1.0538,0 -1.9684,0.2962 -2.7521,0.8906 -0.7763,0.5935 -1.3228,1.4191 -1.6386,2.4761 -0.3092,1.0493 -0.4671,2.5697 -0.4671,4.5459 v 7.1893 z M 203.2647,296.85 c -4.6934,0 -8.3656,-1.3828 -11.0178,-4.156 -2.6521,-2.7723 -3.9824,-6.3492 -3.9824,-10.7366 0,-2.8669 0.6259,-5.4585 1.8693,-7.7607 1.2509,-2.3031 2.9885,-4.0614 5.2202,-5.2713 2.2234,-1.2088 4.7578,-1.8099 7.5809,-1.8099 2.8698,0 5.4369,0.6297 7.6949,1.9046 2.2644,1.2738 3.9749,3.0771 5.1398,5.4079 1.165,2.3384 1.7441,4.8508 1.7441,7.5514 0,2.9319 -0.638,5.5456 -1.9281,7.8477 -1.2836,2.3098 -3.0408,4.0547 -5.266,5.2416 -2.2177,1.1879 -4.5737,1.7813 -7.0549,1.7813 z m 0.0588,-4.243 c 3.4098,0 6.0881,-1.0063 8.0499,-3.0188 1.9608,-2.0193 2.9417,-4.546 2.9417,-7.5868 0,-3.0991 -0.9865,-5.6478 -2.9688,-7.646 -1.9805,-1.9983 -4.7905,-3.0046 -8.431,-3.0046 -2.2972,0 -4.3038,0.4349 -6.0217,1.2892 -1.718,0.8543 -3.0473,2.1062 -3.9946,3.7499 -0.9426,1.6513 -1.4153,3.4967 -1.4153,5.5456 0,2.9185 0.9071,5.4232 2.7306,7.5227 1.817,2.0995 4.8578,3.1488 9.1092,3.1488 z m -14.5583,-42.9471 v -3.7289 h 22.384 l -22.384,-16.543 v -4.1408 h 28.2684 v 3.7356 H 194.702 l 22.3316,16.565 v 4.1121 z m -6.727,-15.4641 v -2.607 c 1.6059,0.2103 2.8436,0.8544 3.6994,1.9409 0.8622,1.0789 1.2966,2.5191 1.2966,4.3147 0,1.81 -0.4279,3.2578 -1.2836,4.3367 -0.8557,1.0865 -2.0935,1.7306 -3.7124,1.9399 v -2.606 c 0.8753,-0.195 1.5274,-0.5935 1.9543,-1.1802 0.4344,-0.5858 0.6455,-1.3752 0.6455,-2.3604 0,-1.1506 -0.2036,-2.0126 -0.6249,-2.5984 -0.4148,-0.5868 -1.0734,-0.9853 -1.9749,-1.1802 z"
           style="fill:#102a83;fill-rule:evenodd"
           id="path11" />
        <g
           id="Layer1001">
          <path
             d="m 271.412,232.7467 h -50.2464 v 1.2955 h 47.4404 c 0.9251,-0.4519 1.8598,-0.8819 2.806,-1.2955 z M 376.8029,376.5246 H 301.1622 277.2304 233.763 221.1656 V 375.23 h 56.0648 v 0.007 h 23.9318 v -0.004 c 41.0529,0 74.3452,-33.2922 74.3452,-74.3442 0,-41.0529 -33.2923,-74.3452 -74.3452,-74.3452 v -0.003 h -23.9318 v 0.002 h -56.0648 v -1.2946 h 12.5974 43.4674 23.9318 75.6369 0.004 z M 258.1564,240.2464 h -36.9908 v 1.2946 h 35.2289 c 0.5815,-0.4396 1.1679,-0.8724 1.7619,-1.2946 z m -8.966,7.4987 h -28.0248 v 1.2955 h 26.7311 c 0.4252,-0.4376 0.857,-0.8684 1.2937,-1.2955 z m -6.7042,7.4997 h -21.3206 v 1.2946 h 20.3322 c 0.3243,-0.4357 0.6545,-0.8656 0.9884,-1.2946 z m -5.1389,7.4987 h -16.1817 v 1.2946 h 15.4207 c 0.2495,-0.4357 0.5038,-0.8647 0.761,-1.2946 z m -3.9336,7.4987 h -12.2481 v 1.2956 h 11.678 c 0.1862,-0.4338 0.3753,-0.8666 0.5701,-1.2956 z m -2.9135,7.4997 h -9.3346 v 1.2946 h 8.92 c 0.1334,-0.4338 0.2735,-0.8637 0.4146,-1.2946 z m -2.0268,7.4987 h -7.3078 v 1.2946 h 7.042 c 0.0844,-0.4328 0.1737,-0.8637 0.2658,-1.2946 z m -1.2101,7.4987 h -6.0977 v 1.2956 h 5.9681 c 0.0394,-0.4328 0.0825,-0.8647 0.1296,-1.2956 z m -0.4395,7.4997 h -5.6582 v 1.2946 h 5.6582 c -0.002,-0.215 -0.009,-0.429 -0.009,-0.6439 0,-0.2179 0.007,-0.4328 0.009,-0.6507 z m 0.3099,7.4987 h -5.9681 v 1.2956 h 6.0967 c -0.047,-0.4309 -0.0892,-0.8628 -0.1286,-1.2956 z m 1.0729,7.4997 h -7.041 v 1.2946 h 7.3068 c -0.0921,-0.4299 -0.1813,-0.8608 -0.2658,-1.2946 z m 1.8771,7.4987 h -8.9181 v 1.2946 h 9.3327 c -0.1411,-0.4299 -0.2812,-0.8608 -0.4146,-1.2946 z m 2.7561,7.4988 h -11.6742 v 1.2955 h 12.2442 c -0.1948,-0.4299 -0.3829,-0.8618 -0.57,-1.2955 z m 3.7436,7.4996 h -15.4178 v 1.2946 h 16.1779 c -0.2572,-0.429 -0.5115,-0.8598 -0.7601,-1.2946 z m 4.9105,7.4987 h -20.3283 v 1.2956 h 21.3177 c -0.3339,-0.429 -0.665,-0.8599 -0.9894,-1.2956 z m 6.3961,7.4988 h -26.7244 v 1.2955 h 28.018 c -0.4366,-0.427 -0.8675,-0.8579 -1.2936,-1.2955 z m 8.4949,7.4996 h -35.2193 v 1.2946 h 36.9821 c -0.594,-0.4232 -1.1813,-0.855 -1.7628,-1.2946 z m 12.2058,7.4988 h -47.4251 v 1.2955 h 50.2282 c -0.9443,-0.4136 -1.879,-0.8445 -2.8031,-1.2955 z"
             style="fill:#102a83;fill-rule:evenodd"
             id="path13" />
          <path
             d="m 226.8151,375.238 57.8122,-115.6287 13.7883,18.6534 z m 59.9976,-119.9974 14.3499,-28.6957 74.3475,148.6931 z"
             style="fill:#102a83;fill-rule:evenodd"
             id="path15" />
        </g>
      </g>
      <path
         d="m 375.5093,375.2377 -14.8698,-29.7405 c -1.1775,1.568 -2.4193,3.0852 -3.7148,4.5535 z"
         style="fill:#ffffff;fill-rule:evenodd;stroke:#ffffff;stroke-width:0.216;stroke-linecap:butt;stroke-linejoin:miter;stroke-dasharray:none"
         id="path19" />
      <path
         d="m 207.1269,387.3986 v 21.6804 h 8.9803 V 384.99 h -25.3335 v 24.089 h 8.9803 v -21.6804 z m -18.3626,27.7027 v -36.1335 h 29.3542 v 36.1335 z m 42.8029,-6.0223 v -9.8698 h 3.1274 c 8.4303,0 12.6454,-2.3864 12.6454,-7.1599 0,-4.7068 -3.813,-7.0593 -11.4382,-7.0593 h -13.3604 v 24.089 z m 0,-21.8814 h 2.0113 c 3.2763,0 4.915,1.5724 4.915,4.7174 0,3.3905 -1.6387,5.0857 -4.915,5.0857 h -2.0113 z m -11.0353,27.9037 v -36.1335 h 28.8195 v 36.1335 z m 47.3158,-30.5133 c -9.3833,0 -14.0745,4.0486 -14.0745,12.145 0,8.5206 4.5869,12.781 13.7616,12.781 9.205,0 13.8061,-4.1714 13.8061,-12.5133 0,-8.2751 -4.4977,-12.4127 -13.4932,-12.4127 z m -0.3129,1.9078 c 0.8051,0 1.4746,0.0996 2.0104,0.3006 1.6083,0.6022 2.4134,3.5799 2.4134,8.9333 v 2.4424 c 0,5.6878 -0.9531,8.7661 -2.8601,9.2339 -0.4466,0.1121 -0.9672,0.1672 -1.5637,0.1672 -0.7748,0 -1.4291,-0.1005 -1.9658,-0.3006 -1.5789,-0.5799 -2.3679,-3.5915 -2.3679,-9.0338 v -2.5758 c 0,-5.3311 0.789,-8.2867 2.3679,-8.8666 0.5367,-0.201 1.191,-0.3006 1.9658,-0.3006 z m -15.7719,28.6055 v -36.1335 h 31.5893 v 36.1335 z M 287.7751,384.99 v 24.089 h 22.0287 v -2.4085 h -13.0029 v -9.6031 h 8.8465 v -2.1746 h -8.8465 v -7.4942 h 11.1262 V 384.99 Z m -2.0095,30.1113 v -36.1335 h 26.0476 v 36.1335 z M 335.986,384.99 325.2628,395.7297 V 384.99 h -9.0258 v 24.089 h 9.0258 v -9.4349 l 1.2953,-1.1038 7.2383,10.5387 h 10.0974 l -11.4383,-16.4942 7.6859,-7.5948 z m -21.7594,30.1113 v -36.1335 h 31.6785 v 36.1335 z M 350.3279,384.99 v 2.4086 h 7.5958 v 21.6804 h 9.518 v -21.6804 h 7.6394 V 384.99 Z m -2.0094,30.1113 v -36.1335 h 28.7739 v 36.1335 z"
         style="fill:#ce0576;fill-rule:evenodd"
         id="path21" />
    </g>
  </g>
</svg>
